REM DIRINDEX 1\2\5,1\2\6,1\2\7,1\2\8,1\3\9,1\3\10,1\3\11,1\4\12,1\4\13,1\4\14,1\4\15,1\4\16
REM DIRNAME cjc034,folder01,folder02,folder03,folder04,folder05,folder06,folder07,folder08,folder09,folder10,folder11,folder12,folder13,folder14,folder15
TITLE ""
FILE "1200_sec03_1028_1036.mp3" MP3
  TRACK 01 AUDIO
    TITLE "0:"
    INDEX 01 00:00:00
  TRACK 02 AUDIO
    TITLE "12:cjc034_07797"
    INDEX 01 00:00:17
  TRACK 03 AUDIO
    TITLE "0:"
    INDEX 01 00:01:40
  TRACK 04 AUDIO
    TITLE "13:cjc034_07798"
    INDEX 01 00:01:71
  TRACK 05 AUDIO
    TITLE "0:"
    INDEX 01 00:04:58
  TRACK 06 AUDIO
    TITLE "14:cjc034_07799"
    INDEX 01 00:05:14
  TRACK 07 AUDIO
    TITLE "0:"
    INDEX 01 00:06:37
  TRACK 08 AUDIO
    TITLE "15:cjc034_07800"
    INDEX 01 00:06:69
  TRACK 09 AUDIO
    TITLE "0:"
    INDEX 01 00:13:28
  TRACK 10 AUDIO
    TITLE "12:cjc034_07801"
    INDEX 01 00:14:60
  TRACK 11 AUDIO
    TITLE "0:"
    INDEX 01 00:16:22
  TRACK 12 AUDIO
    TITLE "13:cjc034_07802"
    INDEX 01 00:16:55
  TRACK 13 AUDIO
    TITLE "0:"
    INDEX 01 00:17:67
  TRACK 14 AUDIO
    TITLE "14:cjc034_07803"
    INDEX 01 00:18:25
  TRACK 15 AUDIO
    TITLE "0:"
    INDEX 01 00:19:63
  TRACK 16 AUDIO
    TITLE "15:cjc034_07804"
    INDEX 01 00:20:20
  TRACK 17 AUDIO
    TITLE "0:"
    INDEX 01 00:24:31
  TRACK 18 AUDIO
    TITLE "12:cjc034_07805"
    INDEX 01 00:25:64
  TRACK 19 AUDIO
    TITLE "0:"
    INDEX 01 00:26:73
  TRACK 20 AUDIO
    TITLE "13:cjc034_07806"
    INDEX 01 00:27:32
  TRACK 21 AUDIO
    TITLE "0:"
    INDEX 01 00:29:54
  TRACK 22 AUDIO
    TITLE "14:cjc034_07807"
    INDEX 01 00:30:10
  TRACK 23 AUDIO
    TITLE "0:"
    INDEX 01 00:31:18
  TRACK 24 AUDIO
    TITLE "15:cjc034_07808"
    INDEX 01 00:31:53
  TRACK 25 AUDIO
    TITLE "0:"
    INDEX 01 00:36:15
  TRACK 26 AUDIO
    TITLE "12:cjc034_07809"
    INDEX 01 00:37:46
  TRACK 27 AUDIO
    TITLE "0:"
    INDEX 01 00:38:61
  TRACK 28 AUDIO
    TITLE "13:cjc034_07810"
    INDEX 01 00:39:15
  TRACK 29 AUDIO
    TITLE "0:"
    INDEX 01 00:41:57
  TRACK 30 AUDIO
    TITLE "14:cjc034_07811"
    INDEX 01 00:42:14
  TRACK 31 AUDIO
    TITLE "0:"
    INDEX 01 00:43:27
  TRACK 32 AUDIO
    TITLE "15:cjc034_07812"
    INDEX 01 00:43:64
  TRACK 33 AUDIO
    TITLE "0:"
    INDEX 01 00:49:39
  TRACK 34 AUDIO
    TITLE "12:cjc034_07813"
    INDEX 01 00:50:72
  TRACK 35 AUDIO
    TITLE "0:"
    INDEX 01 00:52:10
  TRACK 36 AUDIO
    TITLE "13:cjc034_07814"
    INDEX 01 00:52:47
  TRACK 37 AUDIO
    TITLE "0:"
    INDEX 01 00:53:70
  TRACK 38 AUDIO
    TITLE "14:cjc034_07815"
    INDEX 01 00:54:27
  TRACK 39 AUDIO
    TITLE "0:"
    INDEX 01 00:55:40
  TRACK 40 AUDIO
    TITLE "15:cjc034_07816"
    INDEX 01 00:56:04
  TRACK 41 AUDIO
    TITLE "0:"
    INDEX 01 01:00:25
  TRACK 42 AUDIO
    TITLE "12:cjc034_07817"
    INDEX 01 01:01:56
  TRACK 43 AUDIO
    TITLE "0:"
    INDEX 01 01:03:18
  TRACK 44 AUDIO
    TITLE "13:cjc034_07818"
    INDEX 01 01:03:49
  TRACK 45 AUDIO
    TITLE "0:"
    INDEX 01 01:05:15
  TRACK 46 AUDIO
    TITLE "14:cjc034_07819"
    INDEX 01 01:05:46
  TRACK 47 AUDIO
    TITLE "0:"
    INDEX 01 01:07:06
  TRACK 48 AUDIO
    TITLE "15:cjc034_07820"
    INDEX 01 01:07:37
  TRACK 49 AUDIO
    TITLE "0:"
    INDEX 01 01:12:60
  TRACK 50 AUDIO
    TITLE "12:cjc034_07821"
    INDEX 01 01:14:21
  TRACK 51 AUDIO
    TITLE "0:"
    INDEX 01 01:15:39
  TRACK 52 AUDIO
    TITLE "13:cjc034_07822"
    INDEX 01 01:16:03
  TRACK 53 AUDIO
    TITLE "0:"
    INDEX 01 01:17:12
  TRACK 54 AUDIO
    TITLE "14:cjc034_07823"
    INDEX 01 01:17:51
  TRACK 55 AUDIO
    TITLE "0:"
    INDEX 01 01:18:66
  TRACK 56 AUDIO
    TITLE "15:cjc034_07824"
    INDEX 01 01:19:28
  TRACK 57 AUDIO
    TITLE "0:"
    INDEX 01 01:25:15
  TRACK 58 AUDIO
    TITLE "12:cjc034_07825"
    INDEX 01 01:26:48
  TRACK 59 AUDIO
    TITLE "0:"
    INDEX 01 01:27:57
  TRACK 60 AUDIO
    TITLE "13:cjc034_07826"
    INDEX 01 01:28:20
  TRACK 61 AUDIO
    TITLE "0:"
    INDEX 01 01:31:16
  TRACK 62 AUDIO
    TITLE "14:cjc034_07827"
    INDEX 01 01:31:49
  TRACK 63 AUDIO
    TITLE "0:"
    INDEX 01 01:32:60
  TRACK 64 AUDIO
    TITLE "15:cjc034_07828"
    INDEX 01 01:33:19
  TRACK 65 AUDIO
    TITLE "0:"
    INDEX 01 01:38:36
  TRACK 66 AUDIO
    TITLE "12:cjc034_07829"
    INDEX 01 01:39:72
  TRACK 67 AUDIO
    TITLE "0:"
    INDEX 01 01:41:22
  TRACK 68 AUDIO
    TITLE "13:cjc034_07830"
    INDEX 01 01:41:56
  TRACK 69 AUDIO
    TITLE "0:"
    INDEX 01 01:42:61
  TRACK 70 AUDIO
    TITLE "14:cjc034_07831"
    INDEX 01 01:43:19
  TRACK 71 AUDIO
    TITLE "0:"
    INDEX 01 01:44:46
  TRACK 72 AUDIO
    TITLE "15:cjc034_07832"
    INDEX 01 01:45:06
  TRACK 73 AUDIO
    TITLE "0:"
    INDEX 01 01:48:63
